<svg width="1132" height="862" viewBox="0 0 1132 862" fill="none" xmlns="http://www.w3.org/2000/svg">
<g clip-path="url(#clip0)">
<path d="M1132 719.19H351.647V721.972H1132V719.19Z" fill="#3F3D56"/>
<path d="M863.944 858.439H83.5913V861.221H863.944V858.439Z" fill="#3F3D56"/>
<path d="M912.773 570.788C1019.75 689.096 709.635 859.596 459.053 859.596C208.471 859.596 35.107 727.489 5.33368 570.788C-66.8565 190.841 620.411 -50.6516 459.053 281.979C223.855 766.828 828.523 477.617 912.773 570.788Z" fill="#3F3D56"/>
<path d="M331.97 202.58C337.004 202.58 341.084 198.5 341.084 193.467C341.084 188.433 337.004 184.353 331.97 184.353C326.937 184.353 322.857 188.433 322.857 193.467C322.857 198.5 326.937 202.58 331.97 202.58Z" fill="#D0CDE1"/>
<path d="M208.429 748.39C213.462 748.39 217.543 744.309 217.543 739.276C217.543 734.243 213.462 730.162 208.429 730.162C203.396 730.162 199.315 734.243 199.315 739.276C199.315 744.309 203.396 748.39 208.429 748.39Z" fill="#D0CDE1"/>
<path d="M348.173 331.185C350.41 331.185 352.223 329.371 352.223 327.134C352.223 324.897 350.41 323.084 348.173 323.084C345.936 323.084 344.122 324.897 344.122 327.134C344.122 329.371 345.936 331.185 348.173 331.185Z" fill="#D0CDE1"/>
<path d="M135.52 541.812C137.757 541.812 139.57 539.999 139.57 537.762C139.57 535.525 137.757 533.711 135.52 533.711C133.282 533.711 131.469 535.525 131.469 537.762C131.469 539.999 133.282 541.812 135.52 541.812Z" fill="#D0CDE1"/>
<path d="M668.165 693.708C670.402 693.708 672.215 691.894 672.215 689.657C672.215 687.42 670.402 685.606 668.165 685.606C665.928 685.606 664.114 687.42 664.114 689.657C664.114 691.894 665.928 693.708 668.165 693.708Z" fill="#D0CDE1"/>
<path d="M122.355 335.235C124.592 335.235 126.406 333.422 126.406 331.185C126.406 328.948 124.592 327.134 122.355 327.134C120.118 327.134 118.305 328.948 118.305 331.185C118.305 333.422 120.118 335.235 122.355 335.235Z" fill="#D0CDE1"/>
<path d="M368.425 223.846H366.4V221.82H365.387V223.846H363.362V224.858H365.387V226.884H366.4V224.858H368.425V223.846Z" fill="#D0CDE1"/>
<path d="M213.492 257.263H211.467V255.237H210.454V257.263H208.429V258.275H210.454V260.3H211.467V258.275H213.492V257.263Z" fill="#D0CDE1"/>
<path d="M112.229 447.638H110.204V445.612H109.191V447.638H107.166V448.65H109.191V450.676H110.204V448.65H112.229V447.638Z" fill="#D0CDE1"/>
<path d="M396.779 780.794C399.016 780.794 400.83 778.981 400.83 776.743C400.83 774.506 399.016 772.693 396.779 772.693C394.542 772.693 392.729 774.506 392.729 776.743C392.729 778.981 394.542 780.794 396.779 780.794Z" fill="#D0CDE1"/>
<path d="M383.615 574.217C385.852 574.217 387.665 572.403 387.665 570.166C387.665 567.929 385.852 566.116 383.615 566.116C381.378 566.116 379.564 567.929 379.564 570.166C379.564 572.403 381.378 574.217 383.615 574.217Z" fill="#D0CDE1"/>
<path d="M862.59 649.152C864.827 649.152 866.641 647.338 866.641 645.101C866.641 642.864 864.827 641.051 862.59 641.051C860.353 641.051 858.54 642.864 858.54 645.101C858.54 647.338 860.353 649.152 862.59 649.152Z" fill="#D0CDE1"/>
<path d="M373.488 686.619H371.463V684.594H370.451V686.619H368.425V687.632H370.451V689.657H371.463V687.632H373.488V686.619Z" fill="#D0CDE1"/>
<path d="M569.939 758.516H567.914V756.491H566.901V758.516H564.876V759.529H566.901V761.554H567.914V759.529H569.939V758.516Z" fill="#D0CDE1"/>
<path d="M73.749 578.267H71.724V576.242H70.711V578.267H68.686V579.28H70.711V581.305H71.724V579.28H73.749V578.267Z" fill="#D0CDE1"/>
<path d="M355.261 432.448H353.236V430.423H352.223V432.448H350.198V433.461H352.223V435.486H353.236V433.461H355.261V432.448Z" fill="#D0CDE1"/>
<path d="M230.707 312.957H228.682V310.932H227.669V312.957H225.644V313.97H227.669V315.995H228.682V313.97H230.707V312.957Z" fill="#D0CDE1"/>
<path d="M313.743 512.446H311.718V510.421H310.705V512.446H308.68V513.459H310.705V515.484H311.718V513.459H313.743V512.446Z" fill="#D0CDE1"/>
<path d="M192.227 638.013H190.202V635.987H189.189V638.013H187.164V639.025H189.189V641.051H190.202V639.025H192.227V638.013Z" fill="#D0CDE1"/>
<path d="M233.745 466.878C266.742 466.878 293.49 462.797 293.49 457.764C293.49 452.731 266.742 448.65 233.745 448.65C200.749 448.65 174 452.731 174 457.764C174 462.797 200.749 466.878 233.745 466.878Z" fill="#F97316"/>
<path d="M239.821 460.802C215.398 460.802 179.063 458.105 179.063 450.676C179.063 443.246 215.398 440.549 239.821 440.549C264.244 440.549 300.579 443.246 300.579 450.676C300.579 458.105 264.244 460.802 239.821 460.802ZM239.821 442.574C223.911 442.574 208.962 443.518 197.727 445.233C184.565 447.24 181.088 449.671 181.088 450.676C181.088 451.68 184.565 454.111 197.727 456.118C208.962 457.833 223.911 458.777 239.821 458.777C255.73 458.777 270.679 457.833 281.914 456.118C295.076 454.111 298.553 451.68 298.553 450.676C298.553 449.671 295.076 447.24 281.914 445.233C270.679 443.518 255.73 442.574 239.821 442.574Z" fill="#D0CDE1"/>
<path d="M959.032 534.541C874.783 441.37 270.115 730.581 505.313 245.733C610.153 29.6108 356.743 55.8607 186.159 204.978C351.347 91.5514 550.739 88.2823 455.694 284.213C220.496 769.061 825.164 479.851 909.413 573.021C948.615 616.374 931.806 666.734 882.447 713.146C967.286 657.54 1009.41 590.254 959.032 534.541Z" fill="#D0CDE1"/>
<path d="M463.218 857.745L461.915 857.256C461.629 857.148 433.137 846.232 419.789 821.479C406.442 796.726 412.977 766.922 413.045 766.625L413.353 765.268L414.655 765.756C414.941 765.864 443.433 776.78 456.781 801.533C470.128 826.286 463.593 856.09 463.525 856.387L463.218 857.745ZM421.927 820.327C433.211 841.256 455.727 851.984 461.432 854.433C462.516 848.318 465.918 823.593 454.643 802.685C443.37 781.779 420.846 771.034 415.139 768.58C414.053 774.697 410.653 799.42 421.927 820.327H421.927Z" fill="#D0CDE1"/>
<path d="M429.99 814.011C453.976 828.442 463.214 857.106 463.214 857.106C463.214 857.106 433.562 862.372 409.576 847.941C385.589 833.51 376.351 804.846 376.351 804.846C376.351 804.846 406.003 799.579 429.99 814.011Z" fill="#F97316"/>
<path d="M766.551 289.985C766.551 289.985 711.59 343.848 734.674 350.443C757.757 357.039 784.139 300.978 784.139 300.978L766.551 289.985Z" fill="#FFB9B9"/>
<path d="M821.513 471.359L814.917 502.137L864.383 504.336L856.688 471.359H821.513Z" fill="#FFB9B9"/>
<path d="M977.604 661.526L971.009 692.305L1020.47 694.503L1012.78 661.526H977.604Z" fill="#FFB9B9"/>
<path d="M890.765 265.802L895.161 283.39C895.161 283.39 773.147 259.207 779.742 320.764C786.337 382.321 814.917 441.68 814.917 441.68C814.917 441.68 812.719 461.466 817.116 464.764C821.513 468.061 817.116 479.054 817.116 479.054C817.116 479.054 857.788 484.55 858.887 474.657C859.475 468.043 859.105 461.378 857.788 454.87C857.788 454.87 859.986 454.87 857.788 443.878C855.589 432.886 846.708 344.235 840.113 332.144C840.113 332.144 898.459 376.825 929.238 371.329C929.238 371.329 924.841 415.298 942.428 473.557C960.016 531.817 960.016 538.412 960.016 538.412C960.016 538.412 980.902 649.435 975.406 662.626L974.306 668.122H1014.98C1014.98 668.122 1011.68 609.862 1014.98 602.168C1018.28 594.473 1018.28 528.519 999.589 495.542C986.355 472.189 988.82 404.476 996.059 377.712C1002.14 355.236 1003.67 337.938 1000.11 314.929C996.299 290.323 984.92 277.462 971.009 265.802H890.765Z" fill="#2F2E41"/>
<path d="M923.192 100.368C945.047 100.368 962.764 82.6504 962.764 60.7951C962.764 38.9399 945.047 21.2227 923.192 21.2227C901.337 21.2227 883.62 38.9399 883.62 60.7951C883.62 82.6504 901.337 100.368 923.192 100.368Z" fill="#FFB9B9"/>
<path d="M912.749 88.8256C912.749 88.8256 924.841 124.001 923.742 130.596C922.642 137.192 958.917 117.406 958.917 117.406C958.917 117.406 944.627 82.2302 949.024 72.3371L912.749 88.8256Z" fill="#FFB9B9"/>
<path d="M956.719 105.314L918.245 120.703L920.444 133.894C920.444 133.894 917.146 138.291 918.245 140.49C919.345 142.688 903.955 151.482 906.154 154.78C908.352 158.077 892.963 171.268 894.062 174.566C895.162 177.864 858.887 197.65 878.673 236.123C878.673 236.123 888.932 249.459 887.646 265.23C887.601 265.784 887.541 266.341 887.467 266.901C885.268 283.39 971.009 264.703 971.009 264.703V246.016C971.009 246.016 978.703 242.718 977.604 228.428C976.505 214.138 969.909 220.734 977.604 213.039C985.299 205.344 985.299 206.444 984.199 199.848C983.761 197.214 983.672 187.744 983.724 177.318C983.825 155.288 976.651 133.841 963.314 116.306L956.719 105.314Z" fill="#D0CDE1"/>
<path d="M935.833 133.894L864.383 208.642L759.956 291.085L783.04 309.772L975.406 181.161C975.406 181.161 991.894 110.81 935.833 133.894Z" fill="#D0CDE1"/>
<path d="M824.811 487.847C824.811 487.847 817.116 474.657 811.62 479.054L773.147 509.832C773.147 509.832 704.994 529.618 770.948 545.008C770.948 545.008 807.223 550.504 814.917 545.008C822.612 539.511 834.704 540.611 838.001 542.809C841.299 545.008 883.07 541.71 883.07 532.916C883.07 524.122 860.032 485.689 860.032 485.689C860.032 485.689 846.795 501.038 824.811 487.847Z" fill="#2F2E41"/>
<path d="M980.902 678.015C980.902 678.015 973.207 664.824 967.711 669.221L929.238 700C929.238 700 861.085 719.786 927.039 735.175C927.039 735.175 963.314 740.671 971.009 735.175C978.703 729.679 990.795 730.778 994.093 732.976C997.39 735.175 1039.16 731.877 1039.16 723.083C1039.16 714.29 1016.12 675.856 1016.12 675.856C1016.12 675.856 1002.89 691.206 980.902 678.015Z" fill="#2F2E41"/>
<path d="M875.768 45.1014C875.768 45.1014 882.459 -13.7147 939.684 2.98507C939.684 2.98507 980.168 -5.24941 994.467 45.3128L1008.98 98.3237L1002.34 94.8714L999.4 101.63L988.798 104.533L984.065 95.5715L982.071 106.603L908.853 121.406C908.853 121.406 933.615 93.1137 933.439 51.6772L926.146 59.687L875.768 45.1014Z" fill="#2F2E41"/>
<path d="M611.457 566.116C670.739 566.116 718.796 559.769 718.796 551.939C718.796 544.109 670.739 537.762 611.457 537.762C552.176 537.762 504.118 544.109 504.118 551.939C504.118 559.769 552.176 566.116 611.457 566.116Z" fill="#2F2E41"/>
<path d="M669.771 380.518H668.5V345.708C668.5 343.062 667.979 340.442 666.966 337.997C665.954 335.553 664.47 333.332 662.599 331.461C660.728 329.59 658.507 328.106 656.063 327.094C653.618 326.081 650.999 325.56 648.353 325.56H574.602C571.956 325.56 569.336 326.081 566.892 327.094C564.448 328.106 562.226 329.59 560.356 331.461C558.485 333.332 557.001 335.553 555.988 337.997C554.976 340.442 554.455 343.062 554.455 345.708V536.681C554.455 539.326 554.976 541.946 555.988 544.391C557.001 546.835 558.485 549.056 560.356 550.927C562.226 552.798 564.448 554.282 566.892 555.294C569.336 556.307 571.956 556.828 574.602 556.828H648.353C650.999 556.828 653.618 556.307 656.063 555.294C658.507 554.282 660.728 552.798 662.599 550.927C664.47 549.056 665.954 546.835 666.966 544.391C667.979 541.946 668.5 539.326 668.5 536.681V405.297H669.771V380.518Z" fill="#3F3D56"/>
<path d="M648.689 331.278H639.062C639.505 332.364 639.674 333.541 639.554 334.707C639.434 335.874 639.03 336.992 638.376 337.965C637.722 338.938 636.839 339.735 635.805 340.287C634.77 340.838 633.616 341.126 632.444 341.126H590.193C589.021 341.126 587.866 340.838 586.832 340.287C585.797 339.735 584.914 338.938 584.26 337.965C583.607 336.992 583.202 335.874 583.082 334.707C582.963 333.541 583.132 332.364 583.575 331.278H574.583C572.607 331.278 570.651 331.667 568.825 332.424C567 333.18 565.341 334.288 563.944 335.685C562.547 337.082 561.438 338.741 560.682 340.566C559.926 342.392 559.537 344.348 559.537 346.324V537.017C559.537 538.993 559.926 540.949 560.682 542.775C561.438 544.6 562.547 546.259 563.944 547.656C565.341 549.053 567 550.161 568.825 550.918C570.651 551.674 572.607 552.063 574.583 552.063H648.689C650.665 552.063 652.621 551.674 654.447 550.918C656.272 550.161 657.931 549.053 659.328 547.656C660.725 546.259 661.833 544.6 662.589 542.775C663.346 540.949 663.735 538.993 663.735 537.017V346.324C663.735 344.348 663.346 342.392 662.589 340.566C661.833 338.741 660.725 337.082 659.328 335.685C657.931 334.288 656.272 333.18 654.447 332.424C652.621 331.667 650.665 331.278 648.689 331.278Z" fill="#F97316"/>
<path d="M595.255 420.297C607 420.297 616.52 410.776 616.52 399.031C616.52 387.287 607 377.766 595.255 377.766C583.511 377.766 573.99 387.287 573.99 399.031C573.99 410.776 583.511 420.297 595.255 420.297Z" fill="#D0CDE1"/>
<path d="M650.532 429.893L624.81 404.171C627.97 399.355 629.231 393.538 628.349 387.846C627.468 382.154 624.507 376.991 620.039 373.356C615.571 369.72 609.913 367.871 604.161 368.166C598.408 368.461 592.97 370.879 588.897 374.952C584.824 379.025 582.406 384.463 582.111 390.216C581.816 395.968 583.665 401.626 587.301 406.094C590.936 410.562 596.099 413.523 601.791 414.404C607.483 415.285 613.3 414.024 618.116 410.865L643.838 436.587L650.532 429.893ZM593.635 403.118C591.319 400.801 589.741 397.85 589.102 394.636C588.462 391.423 588.79 388.092 590.044 385.065C591.298 382.038 593.421 379.45 596.146 377.63C598.87 375.81 602.073 374.838 605.349 374.838C608.626 374.838 611.829 375.81 614.553 377.63C617.277 379.45 619.4 382.038 620.654 385.065C621.908 388.092 622.236 391.423 621.597 394.636C620.958 397.85 619.38 400.801 617.063 403.118C615.525 404.656 613.699 405.877 611.689 406.709C609.679 407.542 607.525 407.97 605.349 407.97C603.174 407.97 601.02 407.542 599.01 406.709C597 405.877 595.174 404.656 593.635 403.118Z" fill="#3F3D56"/>
<path d="M652.975 454.726H569.939V464.852H652.975V454.726Z" fill="#3F3D56"/>
<path fill-rule="evenodd" clip-rule="evenodd" d="M258.5 401.525C258.496 406.748 257.41 411.92 255.303 416.745C253.192 421.578 250.099 425.97 246.198 429.669C243.598 432.136 240.672 434.263 237.5 436C234.328 434.263 231.402 432.136 228.802 429.669C224.901 425.97 221.808 421.578 219.697 416.745C217.589 411.918 216.503 406.745 216.5 401.521V401.5H258.5C258.5 401.508 258.5 401.517 258.5 401.525Z" fill="#F97316"/>
<path d="M197 368.5C197 346.132 215.132 328 237.5 328C259.868 328 278 346.132 278 368.5C278 390.868 259.868 409 237.5 409C215.132 409 197 390.868 197 368.5Z" fill="#F97316"/>
<path d="M246.5 385C258.926 385 269 374.926 269 362.5C269 350.074 258.926 340 246.5 340C234.074 340 224 350.074 224 362.5C224 374.926 234.074 385 246.5 385Z" fill="#E4E1F1"/>
<path d="M274.941 291.439C275.341 289.188 276.068 287.231 277.122 285.57C278.176 283.909 279.97 282.616 282.504 281.692C283.267 281.401 284.202 281.07 285.311 280.699C286.42 280.327 287.522 279.859 288.618 279.296C289.713 278.732 290.669 278.025 291.483 277.175C292.344 276.332 292.889 275.268 293.118 273.981C293.453 272.098 293.044 270.532 291.891 269.284C290.746 267.99 289.324 267.192 287.624 266.89C285.603 266.531 283.815 266.853 282.262 267.856C280.717 268.814 279.467 269.848 278.511 270.958L273.251 265.756C274.944 263.166 277.238 261.323 280.135 260.226C283.078 259.138 286.111 258.872 289.236 259.427C291.579 259.844 293.744 260.726 295.732 262.075C297.774 263.386 299.328 265.179 300.393 267.454C301.466 269.683 301.72 272.383 301.157 275.553C300.634 278.494 299.551 280.718 297.908 282.227C296.273 283.69 294.258 284.896 291.861 285.845C290.49 286.359 289.146 286.855 287.829 287.332C286.512 287.808 285.354 288.456 284.355 289.274C283.411 290.054 282.8 291.225 282.522 292.787L274.941 291.439ZM272.223 307.522L273.915 298.011L281.565 299.371L279.873 308.882L272.223 307.522Z" fill="#F97316"/>
</g>
<defs>
<clipPath id="clip0">
<rect width="1132" height="861.221" fill="white"/>
</clipPath>
</defs>
</svg>
