<svg width="76" height="56" viewBox="0 0 76 56" fill="none" xmlns="http://www.w3.org/2000/svg">
<path d="M54.6774 14.5H64.3226C66.6297 14.5 68.5 16.3703 68.5 18.6774V33.5C68.5 38.4706 64.4706 42.5 59.5 42.5C54.5294 42.5 50.5 38.4706 50.5 33.5V18.6774C50.5 16.3703 52.3703 14.5 54.6774 14.5Z" stroke="black"/>
<path d="M65.4994 3C65.4994 5.5 63.4995 7.50013 61.9994 9C59.2787 11.7203 59.5001 14.5 59.5 19" stroke="black"/>
<rect x="57" y="18" width="5" height="9" rx="2.5" fill="black"/>
<path fill-rule="evenodd" clip-rule="evenodd" d="M59.8945 21C58.79 21 57.8945 21.8954 57.8945 23V35C57.8945 35.2509 57.9407 35.491 58.0251 35.7123C57.9604 35.9985 57.9179 36.2657 57.8944 36.5C53.8944 36.5 54.8944 40.8333 55.8944 43C56.8945 46 59.8945 52 63.8945 52C68.8945 52 73.3945 47 73.8945 45C74.3945 43 75.5871 37.1926 72.8945 34.5C72.8357 34.4412 72.763 34.3547 72.6733 34.2478C72 33.4463 70.3651 31.4999 66.3945 31.4999L62.3945 31.5C62.2219 31.5 62.0553 31.5097 61.8945 31.5283V23C61.8945 21.8954 60.9991 21 59.8945 21Z" fill="#B46600"/>
<rect x="8.5" y="20.5" width="26" height="16" rx="1.5" stroke="black"/>
<path d="M13.9199 28.8311C13.1159 28.5999 12.5299 28.3167 12.1621 27.9814C11.7975 27.6429 11.6152 27.2262 11.6152 26.7314C11.6152 26.1715 11.8382 25.7093 12.2842 25.3447C12.7334 24.9769 13.3161 24.793 14.0322 24.793C14.5205 24.793 14.9551 24.8874 15.3359 25.0762C15.7201 25.265 16.0163 25.5254 16.2246 25.8574C16.4362 26.1895 16.542 26.5524 16.542 26.9463H15.5996C15.5996 26.5166 15.4629 26.1797 15.1895 25.9355C14.916 25.6882 14.5303 25.5645 14.0322 25.5645C13.57 25.5645 13.2087 25.667 12.9482 25.8721C12.6911 26.0739 12.5625 26.3555 12.5625 26.7168C12.5625 27.0065 12.6846 27.2523 12.9287 27.4541C13.1761 27.6527 13.5944 27.835 14.1836 28.001C14.776 28.167 15.2383 28.3509 15.5703 28.5527C15.9056 28.7513 16.153 28.984 16.3125 29.251C16.4753 29.5179 16.5566 29.832 16.5566 30.1934C16.5566 30.7695 16.332 31.2318 15.8828 31.5801C15.4336 31.9251 14.833 32.0977 14.0811 32.0977C13.5928 32.0977 13.137 32.0049 12.7139 31.8193C12.2907 31.6305 11.9635 31.3734 11.7324 31.0479C11.5046 30.7223 11.3906 30.3529 11.3906 29.9395H12.333C12.333 30.3691 12.4909 30.7093 12.8066 30.96C13.1257 31.2074 13.5505 31.3311 14.0811 31.3311C14.5758 31.3311 14.9551 31.2301 15.2188 31.0283C15.4824 30.8265 15.6143 30.5514 15.6143 30.2031C15.6143 29.8548 15.4922 29.5863 15.248 29.3975C15.0039 29.2054 14.5612 29.0166 13.9199 28.8311ZM18.5244 27.3564C18.9248 26.8649 19.4456 26.6191 20.0869 26.6191C21.2035 26.6191 21.7666 27.249 21.7764 28.5088V32H20.873V28.5039C20.8698 28.123 20.7819 27.8415 20.6094 27.6592C20.4401 27.4769 20.1748 27.3857 19.8135 27.3857C19.5205 27.3857 19.2633 27.4639 19.042 27.6201C18.8206 27.7764 18.6481 27.9814 18.5244 28.2354V32H17.6211V24.5H18.5244V27.3564ZM24.1104 32H23.207V26.7168H24.1104V32ZM23.1338 25.3154C23.1338 25.1689 23.1777 25.0452 23.2656 24.9443C23.3568 24.8434 23.4902 24.793 23.666 24.793C23.8418 24.793 23.9753 24.8434 24.0664 24.9443C24.1576 25.0452 24.2031 25.1689 24.2031 25.3154C24.2031 25.4619 24.1576 25.584 24.0664 25.6816C23.9753 25.7793 23.8418 25.8281 23.666 25.8281C23.4902 25.8281 23.3568 25.7793 23.2656 25.6816C23.1777 25.584 23.1338 25.4619 23.1338 25.3154ZM26.0049 32V27.415H25.1699V26.7168H26.0049V26.1748C26.0049 25.6084 26.1562 25.1706 26.459 24.8613C26.7617 24.5521 27.1898 24.3975 27.7432 24.3975C27.9515 24.3975 28.1582 24.4251 28.3633 24.4805L28.3145 25.2129C28.1615 25.1836 27.9987 25.1689 27.8262 25.1689C27.5332 25.1689 27.307 25.2552 27.1475 25.4277C26.988 25.597 26.9082 25.8411 26.9082 26.1602V26.7168H28.0361V27.415H26.9082V32H26.0049ZM30.2627 25.4375V26.7168H31.249V27.415H30.2627V30.6914C30.2627 30.903 30.3066 31.0625 30.3945 31.1699C30.4824 31.2741 30.6322 31.3262 30.8438 31.3262C30.9479 31.3262 31.0911 31.3066 31.2734 31.2676V32C31.0358 32.0651 30.8047 32.0977 30.5801 32.0977C30.1764 32.0977 29.8721 31.9756 29.667 31.7314C29.4619 31.4873 29.3594 31.1406 29.3594 30.6914V27.415H28.3975V26.7168H29.3594V25.4375H30.2627Z" fill="black"/>
<path d="M40.2715 28.1865H42.2539V29.041H40.2715V31.2871H39.3633V29.041H37.3809V28.1865H39.3633V26.1113H40.2715V28.1865Z" fill="black"/>
<path d="M47.0454 28.8794C47.0454 29.6779 46.9398 30.4442 46.7285 31.1782C46.5208 31.9087 46.2004 32.5837 45.7671 33.2031C45.3374 33.8226 44.8862 34.263 44.4136 34.5244L44.2041 33.9175C44.7555 33.495 45.1978 32.8397 45.5308 31.9517C45.8674 31.0601 46.0392 30.0718 46.0464 28.9868V28.8149C46.0464 28.063 45.9676 27.3647 45.8101 26.7202C45.6525 26.0721 45.4323 25.492 45.1494 24.98C44.8701 24.4679 44.555 24.0687 44.2041 23.7822L44.4136 23.1753C44.8862 23.4367 45.3356 23.8735 45.7617 24.4858C46.1914 25.0981 46.5119 25.7731 46.7231 26.5107C46.938 27.2484 47.0454 28.0379 47.0454 28.8794Z" fill="#C4C4C4"/>
<path d="M2.71436 28.8257C2.71436 28.0164 2.82178 27.2394 3.03662 26.4946C3.25505 25.7498 3.5791 25.0731 4.00879 24.4644C4.43848 23.8556 4.88428 23.4259 5.34619 23.1753L5.55029 23.8306C5.02751 24.2316 4.59782 24.8439 4.26123 25.6675C3.92822 26.491 3.74561 27.4131 3.71338 28.4336L3.70801 28.8901C3.70801 30.2723 3.96045 31.4718 4.46533 32.4888C4.76969 33.0975 5.13135 33.5737 5.55029 33.9175L5.34619 34.5244C4.86995 34.2594 4.4152 33.8154 3.98193 33.1924C3.13688 31.9749 2.71436 30.5194 2.71436 28.8257Z" fill="#C4C4C4"/>
</svg>
