<svg width="76" height="56" viewBox="0 0 76 56" fill="none" xmlns="http://www.w3.org/2000/svg">
<path d="M42.2715 27.1865H44.2539V28.041H42.2715V30.2871H41.3633V28.041H39.3809V27.1865H41.3633V25.1113H42.2715V27.1865Z" fill="black"/>
<rect x="9.5" y="20.5" width="26" height="16" rx="1.5" stroke="black"/>
<path d="M21.0547 29.7441C20.9668 30.4961 20.6885 31.0771 20.2197 31.4873C19.7542 31.8942 19.1341 32.0977 18.3594 32.0977C17.5195 32.0977 16.8457 31.7965 16.3379 31.1943C15.8333 30.5921 15.5811 29.7865 15.5811 28.7773V28.0938C15.5811 27.4329 15.6982 26.8519 15.9326 26.3506C16.1702 25.8493 16.5055 25.4652 16.9385 25.1982C17.3714 24.9281 17.8727 24.793 18.4424 24.793C19.1976 24.793 19.8031 25.0046 20.2588 25.4277C20.7145 25.8477 20.9798 26.4303 21.0547 27.1758H20.1123C20.0309 26.6094 19.8535 26.1992 19.5801 25.9453C19.3099 25.6914 18.9307 25.5645 18.4424 25.5645C17.8434 25.5645 17.373 25.7858 17.0312 26.2285C16.6927 26.6712 16.5234 27.3011 16.5234 28.1182V28.8066C16.5234 29.5781 16.6846 30.1917 17.0068 30.6475C17.3291 31.1032 17.7799 31.3311 18.3594 31.3311C18.8802 31.3311 19.279 31.2139 19.5557 30.9795C19.8356 30.7419 20.0212 30.3301 20.1123 29.7441H21.0547ZM23.4229 25.4375V26.7168H24.4092V27.415H23.4229V30.6914C23.4229 30.903 23.4668 31.0625 23.5547 31.1699C23.6426 31.2741 23.7923 31.3262 24.0039 31.3262C24.1081 31.3262 24.2513 31.3066 24.4336 31.2676V32C24.196 32.0651 23.9648 32.0977 23.7402 32.0977C23.3366 32.0977 23.0322 31.9756 22.8271 31.7314C22.6221 31.4873 22.5195 31.1406 22.5195 30.6914V27.415H21.5576V26.7168H22.5195V25.4375H23.4229ZM28.0225 27.5273C27.8857 27.5046 27.7376 27.4932 27.5781 27.4932C26.9857 27.4932 26.5837 27.7454 26.3721 28.25V32H25.4688V26.7168H26.3477L26.3623 27.3271C26.6585 26.8551 27.0785 26.6191 27.6221 26.6191C27.7979 26.6191 27.9313 26.6419 28.0225 26.6875V27.5273ZM29.8389 32H28.9355V24.5H29.8389V32Z" fill="black"/>
<path d="M52.6774 14.5H62.3226C64.6297 14.5 66.5 16.3703 66.5 18.6774V33.5C66.5 38.4706 62.4706 42.5 57.5 42.5C52.5294 42.5 48.5 38.4706 48.5 33.5V18.6774C48.5 16.3703 50.3703 14.5 52.6774 14.5Z" stroke="black"/>
<path d="M63.4994 3C63.4994 5.5 61.4995 7.50013 59.9994 9C57.2787 11.7203 57.5001 14.5 57.5 19" stroke="black"/>
<rect x="55" y="18" width="5" height="9" rx="2.5" fill="black"/>
<path d="M50.6774 12C48.0942 12 46 14.0942 46 16.6774" stroke="#C4C4C4"/>
<path fill-rule="evenodd" clip-rule="evenodd" d="M51.8945 21C50.79 21 49.8945 21.8954 49.8945 23V35C49.8945 35.2509 49.9407 35.491 50.0251 35.7123C49.9604 35.9985 49.9179 36.2657 49.8944 36.5C45.8944 36.5 46.8944 40.8333 47.8944 43C48.8945 46 51.8945 52 55.8945 52C60.8945 52 65.3945 47 65.8945 45C66.3945 43 67.5871 37.1926 64.8945 34.5C64.8357 34.4412 64.763 34.3547 64.6733 34.2478C64 33.4463 62.3651 31.4999 58.3945 31.4999L54.3945 31.5C54.2219 31.5 54.0553 31.5097 53.8945 31.5283V23C53.8945 21.8954 52.9991 21 51.8945 21Z" fill="#B46600"/>
</svg>
