<svg width="62" height="49" viewBox="0 0 62 49" fill="none" xmlns="http://www.w3.org/2000/svg">
<path d="M41.6774 11.5H51.3226C53.6297 11.5 55.5 13.3703 55.5 15.6774V30.5C55.5 35.4706 51.4706 39.5 46.5 39.5C41.5294 39.5 37.5 35.4706 37.5 30.5V15.6774C37.5 13.3703 39.3703 11.5 41.6774 11.5Z" stroke="black"/>
<path d="M52.4994 0C52.4994 2.5 50.4995 4.50013 48.9994 6C46.2787 8.72031 46.5001 11.5 46.5 16" stroke="black"/>
<rect x="44" y="15" width="5" height="9" rx="2.5" fill="black"/>
<path fill-rule="evenodd" clip-rule="evenodd" d="M46.8945 18C45.79 18 44.8945 18.8954 44.8945 20V32C44.8945 32.2509 44.9407 32.491 45.0251 32.7123C44.9604 32.9985 44.9179 33.2657 44.8944 33.5C40.8944 33.5 41.8944 37.8333 42.8944 40C43.8945 43 46.8945 49 50.8945 49C55.8945 49 60.3945 44 60.8945 42C61.3945 40 62.5871 34.1926 59.8945 31.5C59.8357 31.4412 59.763 31.3547 59.6733 31.2478C59 30.4463 57.3651 28.4999 53.3945 28.4999L49.3945 28.5C49.2219 28.5 49.0553 28.5097 48.8945 28.5283V20C48.8945 18.8954 47.9991 18 46.8945 18Z" fill="#B46600"/>
<rect x="0.5" y="17.5" width="26" height="16" rx="1.5" stroke="black"/>
<path d="M12.0547 26.7441C11.9668 27.4961 11.6885 28.0771 11.2197 28.4873C10.7542 28.8942 10.1341 29.0977 9.35938 29.0977C8.51953 29.0977 7.8457 28.7965 7.33789 28.1943C6.83333 27.5921 6.58105 26.7865 6.58105 25.7773V25.0938C6.58105 24.4329 6.69824 23.8519 6.93262 23.3506C7.17025 22.8493 7.50553 22.4652 7.93848 22.1982C8.37142 21.9281 8.87272 21.793 9.44238 21.793C10.1976 21.793 10.8031 22.0046 11.2588 22.4277C11.7145 22.8477 11.9798 23.4303 12.0547 24.1758H11.1123C11.0309 23.6094 10.8535 23.1992 10.5801 22.9453C10.3099 22.6914 9.93066 22.5645 9.44238 22.5645C8.84342 22.5645 8.37305 22.7858 8.03125 23.2285C7.69271 23.6712 7.52344 24.3011 7.52344 25.1182V25.8066C7.52344 26.5781 7.68457 27.1917 8.00684 27.6475C8.3291 28.1032 8.77995 28.3311 9.35938 28.3311C9.88021 28.3311 10.279 28.2139 10.5557 27.9795C10.8356 27.7419 11.0212 27.3301 11.1123 26.7441H12.0547ZM14.4229 22.4375V23.7168H15.4092V24.415H14.4229V27.6914C14.4229 27.903 14.4668 28.0625 14.5547 28.1699C14.6426 28.2741 14.7923 28.3262 15.0039 28.3262C15.1081 28.3262 15.2513 28.3066 15.4336 28.2676V29C15.196 29.0651 14.9648 29.0977 14.7402 29.0977C14.3366 29.0977 14.0322 28.9756 13.8271 28.7314C13.6221 28.4873 13.5195 28.1406 13.5195 27.6914V24.415H12.5576V23.7168H13.5195V22.4375H14.4229ZM19.0225 24.5273C18.8857 24.5046 18.7376 24.4932 18.5781 24.4932C17.9857 24.4932 17.5837 24.7454 17.3721 25.25V29H16.4688V23.7168H17.3477L17.3623 24.3271C17.6585 23.8551 18.0785 23.6191 18.6221 23.6191C18.7979 23.6191 18.9313 23.6419 19.0225 23.6875V24.5273ZM20.8389 29H19.9355V21.5H20.8389V29Z" fill="black"/>
<path d="M32.2715 25.1865H34.2539V26.041H32.2715V28.2871H31.3633V26.041H29.3809V25.1865H31.3633V23.1113H32.2715V25.1865Z" fill="black"/>
</svg>
