<svg width="76" height="56" viewBox="0 0 76 56" fill="none" xmlns="http://www.w3.org/2000/svg">
<path d="M48.6774 14.5H58.3226C60.6297 14.5 62.5 16.3703 62.5 18.6774V33.5C62.5 38.4706 58.4706 42.5 53.5 42.5C48.5294 42.5 44.5 38.4706 44.5 33.5V18.6774C44.5 16.3703 46.3703 14.5 48.6774 14.5Z" stroke="black"/>
<path d="M59.4994 3C59.4994 5.5 57.4995 7.50013 55.9994 9C53.2787 11.7203 53.5001 14.5 53.5 19" stroke="black"/>
<rect x="51" y="18" width="5" height="9" rx="2.5" fill="black"/>
<path fill-rule="evenodd" clip-rule="evenodd" d="M53.8945 21C52.79 21 51.8945 21.8954 51.8945 23V35C51.8945 35.2509 51.9407 35.491 52.0251 35.7123C51.9604 35.9985 51.9179 36.2657 51.8944 36.5C47.8944 36.5 48.8944 40.8333 49.8944 43C50.8945 46 53.8945 52 57.8945 52C62.8945 52 67.3945 47 67.8945 45C68.3945 43 69.5871 37.1926 66.8945 34.5C66.8357 34.4412 66.763 34.3547 66.6733 34.2478C66 33.4463 64.3651 31.4999 60.3945 31.4999L56.3945 31.5C56.2219 31.5 56.0553 31.5097 55.8945 31.5283V23C55.8945 21.8954 54.9991 21 53.8945 21Z" fill="#B46600"/>
<rect x="7.5" y="20.5" width="26" height="16" rx="1.5" stroke="black"/>
<path d="M19.0547 29.7441C18.9668 30.4961 18.6885 31.0771 18.2197 31.4873C17.7542 31.8942 17.1341 32.0977 16.3594 32.0977C15.5195 32.0977 14.8457 31.7965 14.3379 31.1943C13.8333 30.5921 13.5811 29.7865 13.5811 28.7773V28.0938C13.5811 27.4329 13.6982 26.8519 13.9326 26.3506C14.1702 25.8493 14.5055 25.4652 14.9385 25.1982C15.3714 24.9281 15.8727 24.793 16.4424 24.793C17.1976 24.793 17.8031 25.0046 18.2588 25.4277C18.7145 25.8477 18.9798 26.4303 19.0547 27.1758H18.1123C18.0309 26.6094 17.8535 26.1992 17.5801 25.9453C17.3099 25.6914 16.9307 25.5645 16.4424 25.5645C15.8434 25.5645 15.373 25.7858 15.0312 26.2285C14.6927 26.6712 14.5234 27.3011 14.5234 28.1182V28.8066C14.5234 29.5781 14.6846 30.1917 15.0068 30.6475C15.3291 31.1032 15.7799 31.3311 16.3594 31.3311C16.8802 31.3311 17.279 31.2139 17.5557 30.9795C17.8356 30.7419 18.0212 30.3301 18.1123 29.7441H19.0547ZM21.4229 25.4375V26.7168H22.4092V27.415H21.4229V30.6914C21.4229 30.903 21.4668 31.0625 21.5547 31.1699C21.6426 31.2741 21.7923 31.3262 22.0039 31.3262C22.1081 31.3262 22.2513 31.3066 22.4336 31.2676V32C22.196 32.0651 21.9648 32.0977 21.7402 32.0977C21.3366 32.0977 21.0322 31.9756 20.8271 31.7314C20.6221 31.4873 20.5195 31.1406 20.5195 30.6914V27.415H19.5576V26.7168H20.5195V25.4375H21.4229ZM26.0225 27.5273C25.8857 27.5046 25.7376 27.4932 25.5781 27.4932C24.9857 27.4932 24.5837 27.7454 24.3721 28.25V32H23.4688V26.7168H24.3477L24.3623 27.3271C24.6585 26.8551 25.0785 26.6191 25.6221 26.6191C25.7979 26.6191 25.9313 26.6419 26.0225 26.6875V27.5273ZM27.8389 32H26.9355V24.5H27.8389V32Z" fill="black"/>
<path d="M39.2715 28.1865H41.2539V29.041H39.2715V31.2871H38.3633V29.041H36.3809V28.1865H38.3633V26.1113H39.2715V28.1865Z" fill="black"/>
</svg>
