<svg width="73" height="49" viewBox="0 0 73 49" fill="none" xmlns="http://www.w3.org/2000/svg">
<path d="M52.6774 11.5H62.3226C64.6297 11.5 66.5 13.3703 66.5 15.6774V30.5C66.5 35.4706 62.4706 39.5 57.5 39.5C52.5294 39.5 48.5 35.4706 48.5 30.5V15.6774C48.5 13.3703 50.3703 11.5 52.6774 11.5Z" stroke="black"/>
<path d="M63.4994 0C63.4994 2.5 61.4995 4.50013 59.9994 6C57.2787 8.72031 57.5001 11.5 57.5 16" stroke="black"/>
<rect x="55" y="15" width="5" height="9" rx="2.5" fill="black"/>
<path fill-rule="evenodd" clip-rule="evenodd" d="M57.8945 18C56.79 18 55.8945 18.8954 55.8945 20V32C55.8945 32.2509 55.9407 32.491 56.0251 32.7123C55.9604 32.9985 55.9179 33.2657 55.8944 33.5C51.8944 33.5 52.8944 37.8333 53.8944 40C54.8945 43 57.8945 49 61.8945 49C66.8945 49 71.3945 44 71.8945 42C72.3945 40 73.5871 34.1926 70.8945 31.5C70.8357 31.4412 70.763 31.3547 70.6733 31.2478C70 30.4463 68.3651 28.4999 64.3945 28.4999L60.3945 28.5C60.2219 28.5 60.0553 28.5097 59.8945 28.5283V20C59.8945 18.8954 58.9991 18 57.8945 18Z" fill="#B46600"/>
<rect x="6.5" y="17.5" width="26" height="16" rx="1.5" stroke="black"/>
<path d="M11.9199 25.8311C11.1159 25.5999 10.5299 25.3167 10.1621 24.9814C9.79753 24.6429 9.61523 24.2262 9.61523 23.7314C9.61523 23.1715 9.83822 22.7093 10.2842 22.3447C10.7334 21.9769 11.3161 21.793 12.0322 21.793C12.5205 21.793 12.9551 21.8874 13.3359 22.0762C13.7201 22.265 14.0163 22.5254 14.2246 22.8574C14.4362 23.1895 14.542 23.5524 14.542 23.9463H13.5996C13.5996 23.5166 13.4629 23.1797 13.1895 22.9355C12.916 22.6882 12.5303 22.5645 12.0322 22.5645C11.57 22.5645 11.2087 22.667 10.9482 22.8721C10.6911 23.0739 10.5625 23.3555 10.5625 23.7168C10.5625 24.0065 10.6846 24.2523 10.9287 24.4541C11.1761 24.6527 11.5944 24.835 12.1836 25.001C12.776 25.167 13.2383 25.3509 13.5703 25.5527C13.9056 25.7513 14.153 25.984 14.3125 26.251C14.4753 26.5179 14.5566 26.832 14.5566 27.1934C14.5566 27.7695 14.332 28.2318 13.8828 28.5801C13.4336 28.9251 12.833 29.0977 12.0811 29.0977C11.5928 29.0977 11.137 29.0049 10.7139 28.8193C10.2907 28.6305 9.96354 28.3734 9.73242 28.0479C9.50456 27.7223 9.39062 27.3529 9.39062 26.9395H10.333C10.333 27.3691 10.4909 27.7093 10.8066 27.96C11.1257 28.2074 11.5505 28.3311 12.0811 28.3311C12.5758 28.3311 12.9551 28.2301 13.2188 28.0283C13.4824 27.8265 13.6143 27.5514 13.6143 27.2031C13.6143 26.8548 13.4922 26.5863 13.248 26.3975C13.0039 26.2054 12.5612 26.0166 11.9199 25.8311ZM16.5244 24.3564C16.9248 23.8649 17.4456 23.6191 18.0869 23.6191C19.2035 23.6191 19.7666 24.249 19.7764 25.5088V29H18.873V25.5039C18.8698 25.123 18.7819 24.8415 18.6094 24.6592C18.4401 24.4769 18.1748 24.3857 17.8135 24.3857C17.5205 24.3857 17.2633 24.4639 17.042 24.6201C16.8206 24.7764 16.6481 24.9814 16.5244 25.2354V29H15.6211V21.5H16.5244V24.3564ZM22.1104 29H21.207V23.7168H22.1104V29ZM21.1338 22.3154C21.1338 22.1689 21.1777 22.0452 21.2656 21.9443C21.3568 21.8434 21.4902 21.793 21.666 21.793C21.8418 21.793 21.9753 21.8434 22.0664 21.9443C22.1576 22.0452 22.2031 22.1689 22.2031 22.3154C22.2031 22.4619 22.1576 22.584 22.0664 22.6816C21.9753 22.7793 21.8418 22.8281 21.666 22.8281C21.4902 22.8281 21.3568 22.7793 21.2656 22.6816C21.1777 22.584 21.1338 22.4619 21.1338 22.3154ZM24.0049 29V24.415H23.1699V23.7168H24.0049V23.1748C24.0049 22.6084 24.1562 22.1706 24.459 21.8613C24.7617 21.5521 25.1898 21.3975 25.7432 21.3975C25.9515 21.3975 26.1582 21.4251 26.3633 21.4805L26.3145 22.2129C26.1615 22.1836 25.9987 22.1689 25.8262 22.1689C25.5332 22.1689 25.307 22.2552 25.1475 22.4277C24.988 22.597 24.9082 22.8411 24.9082 23.1602V23.7168H26.0361V24.415H24.9082V29H24.0049ZM28.2627 22.4375V23.7168H29.249V24.415H28.2627V27.6914C28.2627 27.903 28.3066 28.0625 28.3945 28.1699C28.4824 28.2741 28.6322 28.3262 28.8438 28.3262C28.9479 28.3262 29.0911 28.3066 29.2734 28.2676V29C29.0358 29.0651 28.8047 29.0977 28.5801 29.0977C28.1764 29.0977 27.8721 28.9756 27.667 28.7314C27.4619 28.4873 27.3594 28.1406 27.3594 27.6914V24.415H26.3975V23.7168H27.3594V22.4375H28.2627Z" fill="black"/>
<path d="M38.2715 25.1865H40.2539V26.041H38.2715V28.2871H37.3633V26.041H35.3809V25.1865H37.3633V23.1113H38.2715V25.1865Z" fill="black"/>
<path d="M45.0454 25.8794C45.0454 26.6779 44.9398 27.4442 44.7285 28.1782C44.5208 28.9087 44.2004 29.5837 43.7671 30.2031C43.3374 30.8226 42.8862 31.263 42.4136 31.5244L42.2041 30.9175C42.7555 30.495 43.1978 29.8397 43.5308 28.9517C43.8674 28.0601 44.0392 27.0718 44.0464 25.9868V25.8149C44.0464 25.063 43.9676 24.3647 43.8101 23.7202C43.6525 23.0721 43.4323 22.492 43.1494 21.98C42.8701 21.4679 42.555 21.0687 42.2041 20.7822L42.4136 20.1753C42.8862 20.4367 43.3356 20.8735 43.7617 21.4858C44.1914 22.0981 44.5119 22.7731 44.7231 23.5107C44.938 24.2484 45.0454 25.0379 45.0454 25.8794Z" fill="#C4C4C4"/>
<path d="M0.714355 25.8257C0.714355 25.0164 0.821777 24.2394 1.03662 23.4946C1.25505 22.7498 1.5791 22.0731 2.00879 21.4644C2.43848 20.8556 2.88428 20.4259 3.34619 20.1753L3.55029 20.8306C3.02751 21.2316 2.59782 21.8439 2.26123 22.6675C1.92822 23.491 1.74561 24.4131 1.71338 25.4336L1.70801 25.8901C1.70801 27.2723 1.96045 28.4718 2.46533 29.4888C2.76969 30.0975 3.13135 30.5737 3.55029 30.9175L3.34619 31.5244C2.86995 31.2594 2.4152 30.8154 1.98193 30.1924C1.13688 28.9749 0.714355 27.5194 0.714355 25.8257Z" fill="#C4C4C4"/>
</svg>
