<svg width="76" height="56" viewBox="0 0 76 56" fill="none" xmlns="http://www.w3.org/2000/svg">
<rect x="41.5" y="9.5" width="30" height="22" rx="1.5" stroke="black"/>
<rect x="4.5" y="12.5" width="26" height="16" rx="1.5" stroke="black"/>
<path d="M36.2715 20.1865H38.2539V21.041H36.2715V23.2871H35.3633V21.041H33.3809V20.1865H35.3633V18.1113H36.2715V20.1865Z" fill="black"/>
<path d="M16.0547 21.7441C15.9668 22.4961 15.6885 23.0771 15.2197 23.4873C14.7542 23.8942 14.1341 24.0977 13.3594 24.0977C12.5195 24.0977 11.8457 23.7965 11.3379 23.1943C10.8333 22.5921 10.5811 21.7865 10.5811 20.7773V20.0938C10.5811 19.4329 10.6982 18.8519 10.9326 18.3506C11.1702 17.8493 11.5055 17.4652 11.9385 17.1982C12.3714 16.9281 12.8727 16.793 13.4424 16.793C14.1976 16.793 14.8031 17.0046 15.2588 17.4277C15.7145 17.8477 15.9798 18.4303 16.0547 19.1758H15.1123C15.0309 18.6094 14.8535 18.1992 14.5801 17.9453C14.3099 17.6914 13.9307 17.5645 13.4424 17.5645C12.8434 17.5645 12.373 17.7858 12.0312 18.2285C11.6927 18.6712 11.5234 19.3011 11.5234 20.1182V20.8066C11.5234 21.5781 11.6846 22.1917 12.0068 22.6475C12.3291 23.1032 12.7799 23.3311 13.3594 23.3311C13.8802 23.3311 14.279 23.2139 14.5557 22.9795C14.8356 22.7419 15.0212 22.3301 15.1123 21.7441H16.0547ZM18.4229 17.4375V18.7168H19.4092V19.415H18.4229V22.6914C18.4229 22.903 18.4668 23.0625 18.5547 23.1699C18.6426 23.2741 18.7923 23.3262 19.0039 23.3262C19.1081 23.3262 19.2513 23.3066 19.4336 23.2676V24C19.196 24.0651 18.9648 24.0977 18.7402 24.0977C18.3366 24.0977 18.0322 23.9756 17.8271 23.7314C17.6221 23.4873 17.5195 23.1406 17.5195 22.6914V19.415H16.5576V18.7168H17.5195V17.4375H18.4229ZM23.0225 19.5273C22.8857 19.5046 22.7376 19.4932 22.5781 19.4932C21.9857 19.4932 21.5837 19.7454 21.3721 20.25V24H20.4688V18.7168H21.3477L21.3623 19.3271C21.6585 18.8551 22.0785 18.6191 22.6221 18.6191C22.7979 18.6191 22.9313 18.6419 23.0225 18.6875V19.5273ZM24.8389 24H23.9355V16.5H24.8389V24Z" fill="black"/>
<path d="M61 25C61 27.2091 59.2091 29 57 29C54.7909 29 53 27.2091 53 25C53 22.7909 54.7909 21 57 21C59.2091 21 61 22.7909 61 25ZM54.1267 25C54.1267 26.5869 55.4131 27.8733 57 27.8733C58.5869 27.8733 59.8733 26.5869 59.8733 25C59.8733 23.4131 58.5869 22.1267 57 22.1267C55.4131 22.1267 54.1267 23.4131 54.1267 25Z" fill="#C4C4C4"/>
<path fill-rule="evenodd" clip-rule="evenodd" d="M56.8945 23C55.79 23 54.8945 23.8954 54.8945 25V37C54.8945 37.2509 54.9407 37.491 55.0251 37.7123C54.9604 37.9985 54.9179 38.2657 54.8944 38.5C50.8944 38.5 51.8944 42.8333 52.8944 45C53.8945 48 56.8945 54 60.8945 54C65.8945 54 70.3945 49 70.8945 47C71.3945 45 72.5871 39.1926 69.8945 36.5C69.8357 36.4412 69.763 36.3547 69.6733 36.2478C69 35.4463 67.3651 33.4999 63.3945 33.4999L59.3945 33.5C59.2219 33.5 59.0553 33.5097 58.8945 33.5283V25C58.8945 23.8954 57.9991 23 56.8945 23Z" fill="#B46600"/>
</svg>
