<svg width="43" height="46" viewBox="0 0 43 46" fill="none" xmlns="http://www.w3.org/2000/svg">
<rect x="12.0229" y="11.5" width="30" height="22" rx="1.5" stroke="black"/>
<path d="M7.59623 15.7334C7.79149 15.5382 7.79149 15.2216 7.59623 15.0263C7.40097 14.8311 7.08438 14.8311 6.88912 15.0263L7.59623 15.7334ZM2.50004 19.6225C2.50004 19.8987 2.72389 20.1225 3.00004 20.1225H7.50004C7.77618 20.1225 8.00004 19.8987 8.00004 19.6225C8.00004 19.3464 7.77618 19.1225 7.50004 19.1225H3.50004V15.1225C3.50004 14.8464 3.27618 14.6225 3.00004 14.6225C2.72389 14.6225 2.50004 14.8464 2.50004 15.1225V19.6225ZM6.88912 15.0263L2.64648 19.269L3.35359 19.9761L7.59623 15.7334L6.88912 15.0263Z" fill="black"/>
<path d="M15.1694 6.88863C14.9741 7.0839 14.9741 7.40048 15.1694 7.59574C15.3647 7.791 15.6812 7.791 15.8765 7.59574L15.1694 6.88863ZM20.2656 2.99955C20.2656 2.7234 20.0417 2.49955 19.7656 2.49955H15.2656C14.9894 2.49955 14.7656 2.7234 14.7656 2.99955C14.7656 3.27569 14.9894 3.49955 15.2656 3.49955H19.2656V7.49955C19.2656 7.77569 19.4894 7.99955 19.7656 7.99955C20.0417 7.99955 20.2656 7.77569 20.2656 7.49955V2.99955ZM15.8765 7.59574L20.1191 3.3531L19.412 2.64599L15.1694 6.88863L15.8765 7.59574Z" fill="black"/>
<path d="M43 33.5C43 38 39.5 45.5 34 45C31.673 44.7885 29.1502 44.4102 27.5 43C25.2499 41.0772 24.1923 37.923 23.5 37C22 35 16 31 16 30.5C16 30 17 28.5 18 28.5C20.3551 28.5 22.179 31.5 24.5 31.5C26.1 31.5 26.5 29.1667 26.5 28V16C26.5 15 26.9 13 28.5 13C30.1 13 30.5 15 30.5 16V25H35C40 25 43 28.9723 43 33.5Z" fill="#B46600"/>
</svg>
