<svg width="76" height="56" viewBox="0 0 76 56" fill="none" xmlns="http://www.w3.org/2000/svg">
<g clip-path="url(#clip0)">
<rect x="27.0229" y="9.5" width="30" height="22" rx="1.5" stroke="black"/>
<path d="M22.5962 13.7334C22.7915 13.5382 22.7915 13.2216 22.5962 13.0263C22.401 12.8311 22.0844 12.8311 21.8891 13.0263L22.5962 13.7334ZM17.5 17.6225C17.5 17.8987 17.7239 18.1225 18 18.1225H22.5C22.7762 18.1225 23 17.8987 23 17.6225C23 17.3464 22.7762 17.1225 22.5 17.1225H18.5V13.1225C18.5 12.8464 18.2762 12.6225 18 12.6225C17.7239 12.6225 17.5 12.8464 17.5 13.1225V17.6225ZM21.8891 13.0263L17.6465 17.269L18.3536 17.9761L22.5962 13.7334L21.8891 13.0263Z" fill="black"/>
<path d="M30.1694 4.88863C29.9741 5.0839 29.9741 5.40048 30.1694 5.59574C30.3647 5.791 30.6812 5.791 30.8765 5.59574L30.1694 4.88863ZM35.2656 0.999547C35.2656 0.723405 35.0417 0.499547 34.7656 0.499547H30.2656C29.9894 0.499547 29.7656 0.723405 29.7656 0.999547C29.7656 1.27569 29.9894 1.49955 30.2656 1.49955H34.2656V5.49955C34.2656 5.77569 34.4894 5.99955 34.7656 5.99955C35.0417 5.99955 35.2656 5.77569 35.2656 5.49955V0.999547ZM30.8765 5.59574L35.1191 1.3531L34.412 0.645994L30.1694 4.88863L30.8765 5.59574Z" fill="black"/>
<path d="M58 31.5C58 36 54.5 43.5 49 43C46.673 42.7885 44.1502 42.4102 42.5 41C40.2499 39.0772 39.1923 35.923 38.5 35C37 33 31 29 31 28.5C31 28 32 26.5 33 26.5C35.3551 26.5 37.179 29.5 39.5 29.5C41.1 29.5 41.5 27.1667 41.5 26V14C41.5 13 41.9 11 43.5 11C45.1 11 45.5 13 45.5 14V23H50C55 23 58 26.9723 58 31.5Z" fill="#B46600"/>
</g>
<defs>
<clipPath id="clip0">
<rect width="76" height="56" fill="white"/>
</clipPath>
</defs>
</svg>
