<svg width="55" height="42" viewBox="0 0 55 42" fill="none" xmlns="http://www.w3.org/2000/svg">
<rect x="12.5" y="0.5" width="30" height="22" rx="1.5" stroke="black"/>
<path d="M7 12.5C7.27614 12.5 7.5 12.2761 7.5 12C7.5 11.7239 7.27614 11.5 7 11.5V12.5ZM0.646447 11.6464C0.451184 11.8417 0.451184 12.1583 0.646447 12.3536L3.82843 15.5355C4.02369 15.7308 4.34027 15.7308 4.53553 15.5355C4.7308 15.3403 4.7308 15.0237 4.53553 14.8284L1.70711 12L4.53553 9.17157C4.7308 8.97631 4.7308 8.65973 4.53553 8.46447C4.34027 8.2692 4.02369 8.2692 3.82843 8.46447L0.646447 11.6464ZM7 11.5H1V12.5H7V11.5Z" fill="black"/>
<path d="M48 11.5C47.7239 11.5 47.5 11.7239 47.5 12C47.5 12.2761 47.7239 12.5 48 12.5V11.5ZM54.3536 12.3536C54.5488 12.1583 54.5488 11.8417 54.3536 11.6464L51.1716 8.46447C50.9763 8.2692 50.6597 8.2692 50.4645 8.46447C50.2692 8.65973 50.2692 8.97631 50.4645 9.17157L53.2929 12L50.4645 14.8284C50.2692 15.0237 50.2692 15.3403 50.4645 15.5355C50.6597 15.7308 50.9763 15.7308 51.1716 15.5355L54.3536 12.3536ZM48 12.5H54V11.5H48V12.5Z" fill="black"/>
<path fill-rule="evenodd" clip-rule="evenodd" d="M27.8945 9C26.79 9 25.8945 9.89543 25.8945 11V21.4972C25.7352 21.499 25.5687 21.5 25.3945 21.5C25.2219 21.5 25.0553 21.5097 24.8945 21.5283V13C24.8945 11.8954 23.9991 11 22.8945 11C21.79 11 20.8945 11.8954 20.8945 13V25C20.8945 25.2509 20.9407 25.491 21.0251 25.7123C20.9604 25.9985 20.9179 26.2657 20.8944 26.5C16.8944 26.5 17.8944 30.8333 18.8944 33C19.8945 36 22.8945 42 26.8945 42C31.8945 42 36.3945 37 36.8945 35C37.3945 33 38.5871 27.1926 35.8945 24.5C35.8357 24.4412 35.763 24.3547 35.6733 24.2478C35.029 23.4808 33.5041 21.6654 29.8945 21.5105V11C29.8945 9.89543 28.9991 9 27.8945 9Z" fill="#B46600"/>
</svg>
