<svg width="76" height="56" viewBox="0 0 76 56" fill="none" xmlns="http://www.w3.org/2000/svg">
<rect x="22.5" y="9.5" width="30" height="22" rx="1.5" stroke="black"/>
<path d="M17 21.5C17.2761 21.5 17.5 21.2761 17.5 21C17.5 20.7239 17.2761 20.5 17 20.5V21.5ZM10.6464 20.6464C10.4512 20.8417 10.4512 21.1583 10.6464 21.3536L13.8284 24.5355C14.0237 24.7308 14.3403 24.7308 14.5355 24.5355C14.7308 24.3403 14.7308 24.0237 14.5355 23.8284L11.7071 21L14.5355 18.1716C14.7308 17.9763 14.7308 17.6597 14.5355 17.4645C14.3403 17.2692 14.0237 17.2692 13.8284 17.4645L10.6464 20.6464ZM17 20.5H11V21.5H17V20.5Z" fill="black"/>
<path d="M58 20.5C57.7239 20.5 57.5 20.7239 57.5 21C57.5 21.2761 57.7239 21.5 58 21.5V20.5ZM64.3536 21.3536C64.5488 21.1583 64.5488 20.8417 64.3536 20.6464L61.1716 17.4645C60.9763 17.2692 60.6597 17.2692 60.4645 17.4645C60.2692 17.6597 60.2692 17.9763 60.4645 18.1716L63.2929 21L60.4645 23.8284C60.2692 24.0237 60.2692 24.3403 60.4645 24.5355C60.6597 24.7308 60.9763 24.7308 61.1716 24.5355L64.3536 21.3536ZM58 21.5H64V20.5H58V21.5Z" fill="black"/>
<path fill-rule="evenodd" clip-rule="evenodd" d="M37.8945 18C36.79 18 35.8945 18.8954 35.8945 20V30.4972C35.7352 30.499 35.5687 30.5 35.3945 30.5C35.2219 30.5 35.0553 30.5097 34.8945 30.5283V22C34.8945 20.8954 33.9991 20 32.8945 20C31.79 20 30.8945 20.8954 30.8945 22V34C30.8945 34.2509 30.9407 34.491 31.0251 34.7123C30.9604 34.9985 30.9179 35.2657 30.8944 35.5C26.8944 35.5 27.8944 39.8333 28.8944 42C29.8945 45 32.8945 51 36.8945 51C41.8945 51 46.3945 46 46.8945 44C47.3945 42 48.5871 36.1926 45.8945 33.5C45.8357 33.4412 45.763 33.3547 45.6733 33.2478C45.029 32.4808 43.5041 30.6654 39.8945 30.5105V20C39.8945 18.8954 38.9991 18 37.8945 18Z" fill="#B46600"/>
</svg>
