<svg width="68" height="45" viewBox="0 0 68 45" fill="none" xmlns="http://www.w3.org/2000/svg">
<rect x="37.5" y="0.5" width="30" height="22" rx="1.5" stroke="black"/>
<rect x="0.5" y="3.5" width="26" height="16" rx="1.5" stroke="black"/>
<path d="M32.2715 11.1865H34.2539V12.041H32.2715V14.2871H31.3633V12.041H29.3809V11.1865H31.3633V9.11133H32.2715V11.1865Z" fill="black"/>
<path d="M12.0547 12.7441C11.9668 13.4961 11.6885 14.0771 11.2197 14.4873C10.7542 14.8942 10.1341 15.0977 9.35938 15.0977C8.51953 15.0977 7.8457 14.7965 7.33789 14.1943C6.83333 13.5921 6.58105 12.7865 6.58105 11.7773V11.0938C6.58105 10.4329 6.69824 9.85189 6.93262 9.35059C7.17025 8.84928 7.50553 8.46517 7.93848 8.19824C8.37142 7.92806 8.87272 7.79297 9.44238 7.79297C10.1976 7.79297 10.8031 8.00456 11.2588 8.42773C11.7145 8.84766 11.9798 9.43034 12.0547 10.1758H11.1123C11.0309 9.60938 10.8535 9.19922 10.5801 8.94531C10.3099 8.69141 9.93066 8.56445 9.44238 8.56445C8.84342 8.56445 8.37305 8.78581 8.03125 9.22852C7.69271 9.67122 7.52344 10.3011 7.52344 11.1182V11.8066C7.52344 12.5781 7.68457 13.1917 8.00684 13.6475C8.3291 14.1032 8.77995 14.3311 9.35938 14.3311C9.88021 14.3311 10.279 14.2139 10.5557 13.9795C10.8356 13.7419 11.0212 13.3301 11.1123 12.7441H12.0547ZM14.4229 8.4375V9.7168H15.4092V10.415H14.4229V13.6914C14.4229 13.903 14.4668 14.0625 14.5547 14.1699C14.6426 14.2741 14.7923 14.3262 15.0039 14.3262C15.1081 14.3262 15.2513 14.3066 15.4336 14.2676V15C15.196 15.0651 14.9648 15.0977 14.7402 15.0977C14.3366 15.0977 14.0322 14.9756 13.8271 14.7314C13.6221 14.4873 13.5195 14.1406 13.5195 13.6914V10.415H12.5576V9.7168H13.5195V8.4375H14.4229ZM19.0225 10.5273C18.8857 10.5046 18.7376 10.4932 18.5781 10.4932C17.9857 10.4932 17.5837 10.7454 17.3721 11.25V15H16.4688V9.7168H17.3477L17.3623 10.3271C17.6585 9.85514 18.0785 9.61914 18.6221 9.61914C18.7979 9.61914 18.9313 9.64193 19.0225 9.6875V10.5273ZM20.8389 15H19.9355V7.5H20.8389V15Z" fill="black"/>
<path d="M57 15C57 17.2091 55.2091 19 53 19C50.7909 19 49 17.2091 49 15C49 12.7909 50.7909 11 53 11C55.2091 11 57 12.7909 57 15ZM50.1267 15C50.1267 16.5869 51.4131 17.8733 53 17.8733C54.5869 17.8733 55.8733 16.5869 55.8733 15C55.8733 13.4131 54.5869 12.1267 53 12.1267C51.4131 12.1267 50.1267 13.4131 50.1267 15Z" fill="#C4C4C4"/>
<path fill-rule="evenodd" clip-rule="evenodd" d="M52.8945 14C51.79 14 50.8945 14.8954 50.8945 16V28C50.8945 28.2509 50.9407 28.491 51.0251 28.7123C50.9604 28.9985 50.9179 29.2657 50.8944 29.5C46.8944 29.5 47.8944 33.8333 48.8944 36C49.8945 39 52.8945 45 56.8945 45C61.8945 45 66.3945 40 66.8945 38C67.3945 36 68.5871 30.1926 65.8945 27.5C65.8357 27.4412 65.763 27.3547 65.6733 27.2478C65 26.4463 63.3651 24.4999 59.3945 24.4999L55.3945 24.5C55.2219 24.5 55.0553 24.5097 54.8945 24.5283V16C54.8945 14.8954 53.9991 14 52.8945 14Z" fill="#B46600"/>
</svg>
